[img]http://img215.imageshack.us/img215/119/1575625h.jpg[/img]


[code]iMDB................................: http://www.imdb.com/title/tt1680138/

Plot :
There's a crisis in the Florida Everglades as giant pythons are threatening the alligator population. 

Cast :

Deborah Gibson	... 	Dr. Nikki Riley
Tiffany		... 	Terry O'Hara
A Martinez	... 	Dr. Diego Ortiz
Kathryn Joosten	... 	Angie
Kevin M. Horton	... 	RJ Cupelli
Carey Van Dyke	... 	Justin






General
Format                           : MPEG-4
Format profile                   : Base Media
File size                        : 2.18 GiB
Duration                         : 1h 30mn
Overall bit rate                 : 3 435 Kbps


Video
Format                           : AVC
Format/Info                      : Advanced Video Codec
Format profile                   : High@L3.1
Format settings, CABAC           : Yes
Format settings, ReFrames        : 5 frames
Codec ID/Info                    : Advanced Video Coding
Duration                         : 1h 30mn
Bit rate mode                    : Variable
Bit rate                         : 3 113 Kbps
Maximum bit rate                 : 24.0 Mbps
Width                            : 1 280 pixels
Height                           : 720 pixels
Display aspect ratio             : 16:9
Frame rate mode                  : Constant
Frame rate                       : 23.976 fps
Color space                      : YUV
Chroma subsampling               : 4:2:0
Bit depth                        : 8 bits
Scan type                        : Progressive
Bits/(Pixel*Frame)               : 0.141
Stream size                      : 1.97 GiB (90%)
Writing library                  : x264 core 115 r1995 c1e60b9


Audio
Format                           : AAC
Format/Info                      : Advanced Audio Codec
Duration                         : 1h 30mn
Bit rate mode                    : Variable
Bit rate                         : 326 Kbps
Maximum bit rate                 : 391 Kbps
Channel(s)                       : 6 channels
Channel positions                : Front: L C R, Side: L R, LFE
Sampling rate                    : 48.0 KHz
Compression mode                 : Lossy
Stream size                      : 212 MiB (9%)
Language                         : English



Subtitles          : English/Arabic/Chinese/Dutch/French/German/Spanish
Source             : 720p-HD4U
Sample            : Included
[/code]


[img]http://img846.imageshack.us/img846/8688/screenshot2011062214h42.png[/img]
[img]http://img600.imageshack.us/img600/3200/screenshot2011062214h44.png[/img]
[img]http://img51.imageshack.us/img51/8688/screenshot2011062214h42.png[/img]
[img]http://img41.imageshack.us/img41/3738/screenshot2011062214h43.png[/img]
[img]http://img860.imageshack.us/img860/3738/screenshot2011062214h43.png[/img]


[code]Trackers : 
http://nemesis.1337x.org/announce 
http://exodus.1337x.org:80/announce 
http://genesis.1337x.org:1337/announce
[/code]


[code]
Feel free to visit and select your range and suite of seedboxes and hosting plans.
Recomended by MXMG as these servers seed for your Dowloading @ 25MB/s and Higher... 
http://www.chociz.com/

^COMPATiBLE MODES.......: XBOX-360/PSP/PS3/WDTV/PC

FiND THE GENUiNE MXMG RELEASES @ TORRENTSTATE
HiGHEST QUALiTY iN COMFORTABLE SiZE ...
[/code]